PathFileType  4	(X/Y/Z) C:\Users\antoi\Documents\MyRepositories\mobilecap\ResultsAnalysis
DataRate	CameraRate	NumFrames	NumMarkers	Units	OrigDataRate	OrigDataStartFrame	OrigNumFrames
100.0	100.0	4	51	mm	100.0	271	2161
Frame#	Time	r_knee			r_shank_antsup			r_ankle			r_calc			r_5meta			r_toe			L_knee			L_shank_antsup			L_ankle			L_calc			L_5meta			L_toe			r_sh2			r_sh3			r_sh4			L_sh2			L_sh3			r_thigh1			r_thigh2			r_thigh3			r_thigh4			r_thigh5			L_thigh1			L_thigh2			L_thigh3			L_thigh4			r.ASIS			r.PSIS			L.ASIS			L.PSIS			C7			R_Shoulder			L_Shoulder			R_Sternum			L_Sternum			R_humerus			R_elbow_med			R_elbow_lat			R_forearm			R_wrist_radius			R_wrist_ulna			L_humerus			L_elbow_med			L_elbow_lat			L_forearm			L_wrist_radius			L_wrist_ulna			R_HJC			L_HJC			R_HJC_reg			L_HJC_reg			
		X1	Y1	Z1	X2	Y2	Z2	X3	Y3	Z3	X4	Y4	Z4	X5	Y5	Z5	X6	Y6	Z6	X7	Y7	Z7	X8	Y8	Z8	X9	Y9	Z9	X10	Y10	Z10	X11	Y11	Z11	X12	Y12	Z12	X13	Y13	Z13	X14	Y14	Z14	X15	Y15	Z15	X16	Y16	Z16	X17	Y17	Z17	X18	Y18	Z18	X19	Y19	Z19	X20	Y20	Z20	X21	Y21	Z21	X22	Y22	Z22	X23	Y23	Z23	X24	Y24	Z24	X25	Y25	Z25	X26	Y26	Z26	X27	Y27	Z27	X28	Y28	Z28	X29	Y29	Z29	X30	Y30	Z30	X31	Y31	Z31	X32	Y32	Z32	X33	Y33	Z33	X34	Y34	Z34	X35	Y35	Z35	X36	Y36	Z36	X37	Y37	Z37	X38	Y38	Z38	X39	Y39	Z39	X40	Y40	Z40	X41	Y41	Z41	X42	Y42	Z42	X43	Y43	Z43	X44	Y44	Z44	X45	Y45	Z45	X46	Y46	Z46	X47	Y47	Z47	X48	Y48	Z48	X49	Y49	Z49	X50	Y50	Z50	X51	Y51	Z51	

271	2.70000000	-142.42706	491.55891	-421.23072	-109.17088	438.16523	-423.11553	-256.01839	97.50876	-431.65145	-318.76423	58.92363	-481.18499	-137.89699	39.95631	-393.98757	-94.30733	61.09956	-447.80231	-142.52981	489.74250	-779.52596	-128.89104	402.66254	-798.19677	-247.07439	97.73653	-769.88203	-309.81654	58.41899	-721.60484	-132.76087	41.73238	-806.62103	-87.17294	59.04828	-753.38698	-137.08424	325.64037	-431.99779	-178.66014	451.32552	-392.33090	-206.26430	340.28505	-383.51419	-239.61511	311.83656	-805.32517	-212.46073	431.09198	-802.42522	-64.55651	790.60209	-487.68954	-49.37055	681.82883	-471.58658	-73.50677	663.22031	-410.35638	-132.76984	792.73077	-399.10193	-123.64548	677.23167	-391.76060	-114.88236	815.28415	-781.41717	-109.02258	674.55886	-799.25195	-226.95341	808.23647	-778.53590	-220.41910	667.44473	-764.74470	-95.95564	973.41710	-468.78197	-283.04584	982.82431	-550.40856	-90.30721	958.60687	-711.03762	-282.95868	981.85590	-648.64983	-296.34717	1442.82743	-610.21054	-207.23160	1428.10119	-447.88496	-233.73183	1403.88670	-777.18634	-161.62547	1374.29923	-603.48713	-167.79471	1374.99402	-635.09440	-187.74287	1197.99886	-346.10572	-247.69532	1090.22046	-363.31623	-194.54609	1108.71425	-317.58814	-86.82551	1139.54377	-404.36657	-34.97350	1187.02445	-477.69511	-15.99432	1146.21405	-471.60040	-242.86466	1178.86774	-867.56087	-279.10770	1058.80923	-821.06968	-252.67491	1070.76235	-889.45314	-119.43405	1100.59125	-825.51320	-43.92708	1150.44820	-768.13072	-36.73956	1106.28722	-757.93480	-158.25536	882.54334	-504.77908	-167.06409	881.21320	-695.24223	-153.38333	886.30387	-501.75786	-153.24121	884.72404	-661.98048	
272	2.71000000	-142.40358	491.64503	-421.26273	-109.21593	438.23171	-423.10542	-256.01834	97.49030	-431.63439	-318.74919	58.92272	-481.20385	-137.91673	39.94116	-393.97850	-94.30848	61.09779	-447.81412	-142.36428	489.94559	-779.78156	-128.76724	402.67190	-798.15656	-247.05563	97.76670	-769.89347	-309.81685	58.43878	-721.60202	-132.73565	41.72280	-806.59036	-87.16700	59.04449	-753.33968	-137.15205	325.74326	-432.04021	-178.81304	451.44206	-392.39729	-206.28671	340.27367	-383.68947	-239.46943	311.99286	-805.37394	-212.26394	431.13708	-802.46243	-63.87127	790.65433	-487.65616	-48.95383	681.84508	-471.51335	-73.15707	663.19016	-410.45188	-132.27483	792.78976	-399.28417	-123.34719	677.24896	-391.84755	-114.12883	815.31213	-781.58566	-108.51396	674.58393	-799.33258	-226.30357	808.27429	-778.49895	-219.80078	667.55306	-764.72090	-95.33008	973.59047	-468.80152	-282.36018	982.67211	-550.56155	-89.52312	958.84274	-711.16639	-282.26306	981.70398	-648.95591	-296.35465	1442.65478	-610.50389	-207.55014	1427.93245	-448.03073	-233.27098	1403.84840	-777.30895	-161.60994	1374.25126	-603.47401	-167.69284	1374.95252	-635.03950	-188.33795	1197.45379	-346.54048	-248.05788	1089.77710	-364.29867	-195.13487	1108.35665	-318.03359	-87.06378	1139.31943	-404.32026	-35.07202	1187.01932	-477.44762	-16.29894	1145.99785	-471.84206	-242.08987	1178.86308	-867.74657	-278.12608	1058.74523	-821.34401	-251.77514	1070.78831	-889.80684	-118.68589	1100.64120	-825.56174	-43.22608	1150.55969	-768.25678	-36.12928	1106.45282	-758.04947	-157.44491	882.60833	-504.92892	-166.12569	881.29852	-695.39807	-152.54841	886.37126	-501.80211	-152.39026	884.79349	-662.09659	
273	2.72000000	-142.46593	491.77642	-421.30754	-109.35939	438.32442	-423.13926	-256.00573	97.51170	-431.66577	-318.73756	58.92791	-481.21489	-137.93033	39.93263	-393.97100	-94.31094	61.08698	-447.80553	-142.36809	490.07693	-779.80221	-128.72869	402.68974	-798.12053	-247.05427	97.79397	-769.88728	-309.81683	58.46276	-721.59974	-132.73222	41.75277	-806.58268	-87.16234	59.04109	-753.28049	-137.26058	325.80795	-432.05678	-179.16536	451.75142	-392.43746	-206.59176	340.32135	-383.82035	-239.41553	312.11830	-805.51299	-212.20135	431.22684	-802.58494	-63.23920	790.63520	-487.70274	-48.62761	681.86460	-471.37941	-72.90926	663.12568	-410.63487	-131.81233	792.88852	-399.37773	-122.99361	677.42198	-391.78335	-113.45952	815.35591	-781.66406	-108.03089	674.61388	-799.35962	-225.58333	808.44298	-778.74590	-219.25382	667.78286	-764.88936	-94.70745	973.80588	-468.80440	-281.64826	982.51894	-550.91970	-88.75235	959.03870	-711.19124	-281.54189	981.57075	-649.24448	-296.37117	1442.49933	-610.68589	-207.91542	1427.78483	-448.09823	-232.89349	1403.86439	-777.31567	-161.61498	1374.22554	-603.37751	-167.58520	1374.96813	-634.94839	-188.90411	1197.06331	-346.77391	-248.46363	1089.36862	-365.22697	-195.77629	1107.90940	-318.48382	-87.39394	1139.13391	-404.24238	-35.24332	1187.01420	-477.19322	-16.63137	1145.81534	-471.91606	-241.24464	1178.87767	-867.87025	-277.22945	1058.77814	-821.56340	-250.81408	1070.99633	-890.41445	-117.88122	1100.73643	-825.52368	-42.51612	1150.70406	-768.33637	-35.45984	1106.63986	-757.99674	-156.67005	882.70435	-505.05435	-165.14664	881.35548	-695.53242	-151.69017	886.43061	-501.82719	-151.51665	884.88445	-662.13959	
274	2.73000000	-142.67636	491.90208	-421.34859	-109.67051	438.38467	-423.22565	-256.05775	97.50086	-431.81064	-318.75639	58.91536	-481.19675	-137.94236	39.92935	-393.96450	-94.34462	61.12436	-447.79681	-142.44659	490.19273	-779.78366	-128.78472	402.71687	-798.14577	-247.06105	97.83211	-769.87680	-309.81938	58.48614	-721.58137	-132.72919	41.77972	-806.56038	-87.16594	59.05511	-753.24373	-137.39990	325.75060	-431.99742	-179.48591	452.10240	-392.36160	-206.89273	340.36914	-383.98918	-239.45601	312.22979	-805.62206	-212.29649	431.33930	-802.76310	-62.61723	790.67427	-487.71318	-48.31647	681.89992	-471.26162	-72.76513	663.10262	-410.70391	-131.43827	793.04962	-399.39916	-122.63508	677.76703	-391.70914	-112.81760	815.45478	-781.82629	-107.55185	674.61852	-799.31011	-224.86822	808.74994	-779.19964	-218.82020	668.00067	-765.00512	-94.07133	974.02685	-468.83231	-280.97325	982.40100	-551.31493	-88.02783	959.26686	-711.26330	-280.78418	981.49311	-649.56702	-296.38276	1442.32983	-610.80906	-208.30239	1427.67461	-448.00958	-232.48156	1403.91746	-777.27485	-161.57433	1374.25773	-603.23558	-167.46941	1375.01721	-634.87284	-189.43791	1196.78541	-346.86945	-248.93195	1088.99695	-365.80391	-196.42419	1107.35447	-318.90399	-87.85188	1138.98127	-404.22572	-35.46610	1187.03155	-476.90236	-16.89382	1145.75089	-471.76895	-240.31918	1178.90400	-867.98858	-276.50253	1058.88712	-821.79615	-249.85111	1071.15055	-890.86799	-117.02876	1100.86782	-825.37939	-41.81687	1150.89761	-768.32316	-34.76078	1106.78339	-757.56940	-155.91316	882.81689	-505.22831	-164.19369	881.45443	-695.71493	-150.91335	886.48677	-501.94332	-150.60481	885.00521	-662.28640	
